<?xml version="1.0" encoding="UTF-8"?>
<svg xmlns="http://www.w3.org/2000/svg" version="1.1" viewBox="0 0 1425 486.61">
  <defs>
    <style>
      .cls-1 {
        fill: #fff;
      }
    </style>
  </defs>
  <!-- Generator: Adobe Illustrator 28.7.1, SVG Export Plug-In . SVG Version: 1.2.0 Build 142)  -->
  <g>
    <g id="Calque_1">
      <g>
        <path class="cls-1" d="M283.97,35.98c-114.22,0-207.15,92.93-207.15,207.15s92.93,207.15,207.15,207.15c73.05,0,138.07-37.86,178.36-103.88l2.73-4.48-60.97-35.81-2.58,4.54c-26.39,46.38-70.33,74.07-117.54,74.07-32.44,0-62.68-11.7-87.46-33.83-21.7-19.38-37.37-45.38-44.57-73.76h337.29l.23-4.91c.41-8.6.82-14.4,1.13-18.64.32-4.45.53-7.4.53-10.47,0-114.22-92.93-207.15-207.15-207.15ZM151.92,209.94c7.19-28.73,22.87-54.99,44.6-74.49,24.73-22.2,54.97-33.93,87.46-33.93s61.56,11.73,85.85,33.04c22.36,19.62,38.34,46.19,45.43,75.38H151.92Z"/>
        <polygon class="cls-1" points="1284.03 52.47 1162.2 357.04 1040.37 52.47 959 52.47 1121.69 433.78 1202.7 433.78 1365.4 52.47 1284.03 52.47"/>
        <g>
          <polygon class="cls-1" points="869.83 178.68 865.74 178.68 866.74 180.44 869.83 178.68"/>
          <path class="cls-1" d="M864.19,311.02c-13.13,23.07-30.01,41.11-50.18,53.61-20.13,12.48-42.51,18.81-66.54,18.81-72.93,0-130.06-61.47-130.06-139.95s57.13-139.95,130.06-139.95c4.42,0,8.78.22,13.08.64V36.71c-4.06-.24-8.14-.38-12.26-.38-114.22,0-207.15,92.93-207.15,207.15s92.93,207.15,207.15,207.15c73.05,0,138.07-37.86,178.36-103.88l2.77-4.54-62.69-35.68-2.55,4.48Z"/>
          <path class="cls-1" d="M864,188.83c36.27,0,65.67-29.4,65.67-65.67s-29.4-65.67-65.67-65.67-65.67,29.4-65.67,65.67,29.4,65.67,65.67,65.67"/>
        </g>
      </g>
    </g>
  </g>
</svg>