<svg width="1424" height="287" viewBox="0 0 1424 287" fill="none" xmlns="http://www.w3.org/2000/svg">
<mask id="path-1-inside-1_696_922" fill="white">
<path d="M0 0H1424V287H0V0Z"/>
</mask>
<path d="M1424 287V283H0V287V291H1424V287Z" fill="#1E1E1E" mask="url(#path-1-inside-1_696_922)"/>
<path d="M46.0625 159H32.75V193H15.1875V102H45.6875C50.7292 102 55.2917 102.604 59.375 103.812C63.4583 104.979 66.9583 106.708 69.875 109C72.75 111.292 74.9583 114.146 76.5 117.562C78.0833 120.979 78.875 124.938 78.875 129.438C78.875 132.688 78.4792 135.625 77.6875 138.25C76.9375 140.833 75.8542 143.146 74.4375 145.188C72.9792 147.271 71.2292 149.083 69.1875 150.625C67.1875 152.167 64.9375 153.5 62.4375 154.625L82 192.188V193H63.1875L46.0625 159ZM32.75 144.75H45.75C48.4583 144.75 50.8333 144.375 52.875 143.625C54.9583 142.833 56.6458 141.708 57.9375 140.25C59.0208 139.083 59.8333 137.688 60.375 136.062C60.9583 134.438 61.25 132.625 61.25 130.625C61.25 128.208 60.875 126.083 60.125 124.25C59.4167 122.375 58.3333 120.833 56.875 119.625C55.5833 118.542 54 117.708 52.125 117.125C50.25 116.542 48.1042 116.25 45.6875 116.25H32.75V144.75ZM181.162 154.188C181.162 158.104 180.808 161.833 180.1 165.375C179.392 168.875 178.371 172.125 177.037 175.125C175.621 178.125 173.871 180.875 171.787 183.375C169.704 185.875 167.329 187.958 164.662 189.625C162.246 191.083 159.579 192.208 156.662 193C153.787 193.833 150.683 194.25 147.35 194.25C143.808 194.25 140.537 193.792 137.537 192.875C134.537 191.958 131.808 190.667 129.35 189C126.933 187.25 124.767 185.146 122.85 182.688C120.933 180.188 119.329 177.375 118.037 174.25C116.871 171.375 115.975 168.25 115.35 164.875C114.767 161.5 114.475 157.938 114.475 154.188V140.938C114.475 136.938 114.808 133.146 115.475 129.562C116.183 125.979 117.204 122.667 118.537 119.625C119.829 116.75 121.392 114.146 123.225 111.812C125.1 109.479 127.246 107.479 129.662 105.812C132.037 104.188 134.704 102.938 137.662 102.062C140.621 101.188 143.829 100.75 147.287 100.75C150.787 100.75 154.058 101.208 157.1 102.125C160.183 103 162.954 104.271 165.412 105.938C167.871 107.521 170.017 109.438 171.85 111.688C173.725 113.938 175.329 116.417 176.662 119.125C178.121 122.208 179.225 125.583 179.975 129.25C180.767 132.917 181.162 136.812 181.162 140.938V154.188ZM163.35 140.812C163.35 138.479 163.225 136.271 162.975 134.188C162.767 132.062 162.412 130.104 161.912 128.312C161.287 126.062 160.454 124.062 159.412 122.312C158.371 120.521 157.142 119.062 155.725 117.938C154.6 117.104 153.329 116.458 151.912 116C150.537 115.542 148.996 115.312 147.287 115.312C145.662 115.312 144.183 115.521 142.85 115.938C141.558 116.354 140.392 116.958 139.35 117.75C137.933 118.917 136.725 120.375 135.725 122.125C134.767 123.875 134.017 125.917 133.475 128.25C133.058 130.042 132.746 132 132.537 134.125C132.371 136.25 132.287 138.479 132.287 140.812V154.188C132.287 156.396 132.371 158.521 132.537 160.562C132.704 162.604 132.996 164.5 133.412 166.25C133.871 168.458 134.537 170.479 135.412 172.312C136.329 174.104 137.392 175.562 138.6 176.688C139.725 177.688 140.996 178.458 142.412 179C143.871 179.542 145.517 179.812 147.35 179.812C149.1 179.812 150.704 179.562 152.162 179.062C153.621 178.562 154.912 177.833 156.037 176.875C157.454 175.708 158.642 174.25 159.6 172.5C160.6 170.708 161.392 168.688 161.975 166.438C162.433 164.688 162.767 162.771 162.975 160.688C163.225 158.604 163.35 156.438 163.35 154.188V140.812ZM241.7 102L250.325 136.188L260.137 102H281.95V193H265.825V166.062L266.575 123.5L254.637 163H245.95L235.262 125.188L236.012 166.062V193H219.887V102H241.7ZM367.362 174H340.05L334.675 193H316.175L345.987 102H361.925L391.175 193H372.675L367.362 174ZM344.362 159.062H363.237L353.925 125.562L344.362 159.062ZM485.087 193H467.587L442.275 134.312V193H424.587V102H442.275L467.4 160.438L467.462 102H485.087V193ZM583.562 153.125H546.188V178.812H589.875V193H528.562V102H589.688V116.312H546.188V139.25H583.562V153.125ZM732.388 193V102H762.95C767.908 102 772.408 102.5 776.45 103.5C780.533 104.5 784.013 106.021 786.888 108.062C789.763 110.104 791.971 112.688 793.513 115.812C795.096 118.938 795.888 122.625 795.888 126.875C795.846 129.625 795.346 132.229 794.388 134.688C793.471 137.104 792.096 139.229 790.263 141.062C789.263 142.062 788.117 142.979 786.825 143.812C785.575 144.646 784.179 145.354 782.638 145.938V146C785.638 146.833 788.013 147.896 789.763 149.188C791.554 150.479 793.054 151.979 794.263 153.688C795.513 155.521 796.429 157.521 797.013 159.688C797.638 161.812 797.95 164.021 797.95 166.312C797.95 170.688 797.2 174.542 795.7 177.875C794.2 181.208 792.054 184 789.263 186.25C786.471 188.5 783.075 190.188 779.075 191.312C775.075 192.438 770.575 193 765.575 193H732.388ZM750.013 152.875V178.812H765.638C767.929 178.812 769.971 178.521 771.763 177.938C773.596 177.354 775.117 176.562 776.325 175.562C777.658 174.438 778.658 173.083 779.325 171.5C780.033 169.917 780.388 168.146 780.388 166.188C780.388 164.146 780.117 162.312 779.575 160.688C779.075 159.062 778.263 157.688 777.138 156.562C776.013 155.396 774.554 154.5 772.763 153.875C770.971 153.25 768.846 152.917 766.388 152.875H750.013ZM750.013 140.188H763.075C765.742 140.146 768.096 139.833 770.138 139.25C772.179 138.625 773.825 137.708 775.075 136.5C776.117 135.542 776.908 134.375 777.45 133C778.033 131.625 778.325 130.062 778.325 128.312C778.325 126.479 778.075 124.875 777.575 123.5C777.117 122.125 776.408 120.979 775.45 120.062C774.2 118.771 772.513 117.833 770.388 117.25C768.304 116.667 765.846 116.354 763.013 116.312H750.013V140.188ZM898.487 154.188C898.487 158.104 898.133 161.833 897.425 165.375C896.717 168.875 895.696 172.125 894.362 175.125C892.946 178.125 891.196 180.875 889.112 183.375C887.029 185.875 884.654 187.958 881.987 189.625C879.571 191.083 876.904 192.208 873.987 193C871.112 193.833 868.008 194.25 864.675 194.25C861.133 194.25 857.862 193.792 854.862 192.875C851.862 191.958 849.133 190.667 846.675 189C844.258 187.25 842.092 185.146 840.175 182.688C838.258 180.188 836.654 177.375 835.362 174.25C834.196 171.375 833.3 168.25 832.675 164.875C832.092 161.5 831.8 157.938 831.8 154.188V140.938C831.8 136.938 832.133 133.146 832.8 129.562C833.508 125.979 834.529 122.667 835.862 119.625C837.154 116.75 838.717 114.146 840.55 111.812C842.425 109.479 844.571 107.479 846.987 105.812C849.362 104.188 852.029 102.938 854.987 102.062C857.946 101.188 861.154 100.75 864.612 100.75C868.112 100.75 871.383 101.208 874.425 102.125C877.508 103 880.279 104.271 882.737 105.938C885.196 107.521 887.342 109.438 889.175 111.688C891.05 113.938 892.654 116.417 893.987 119.125C895.446 122.208 896.55 125.583 897.3 129.25C898.092 132.917 898.487 136.812 898.487 140.938V154.188ZM880.675 140.812C880.675 138.479 880.55 136.271 880.3 134.188C880.092 132.062 879.737 130.104 879.237 128.312C878.612 126.062 877.779 124.062 876.737 122.312C875.696 120.521 874.467 119.062 873.05 117.938C871.925 117.104 870.654 116.458 869.237 116C867.862 115.542 866.321 115.312 864.612 115.312C862.987 115.312 861.508 115.521 860.175 115.938C858.883 116.354 857.717 116.958 856.675 117.75C855.258 118.917 854.05 120.375 853.05 122.125C852.092 123.875 851.342 125.917 850.8 128.25C850.383 130.042 850.071 132 849.862 134.125C849.696 136.25 849.612 138.479 849.612 140.812V154.188C849.612 156.396 849.696 158.521 849.862 160.562C850.029 162.604 850.321 164.5 850.737 166.25C851.196 168.458 851.862 170.479 852.737 172.312C853.654 174.104 854.717 175.562 855.925 176.688C857.05 177.688 858.321 178.458 859.737 179C861.196 179.542 862.842 179.812 864.675 179.812C866.425 179.812 868.029 179.562 869.487 179.062C870.946 178.562 872.237 177.833 873.362 176.875C874.779 175.708 875.967 174.25 876.925 172.5C877.925 170.708 878.717 168.688 879.3 166.438C879.758 164.688 880.092 162.771 880.3 160.688C880.55 158.604 880.675 156.438 880.675 154.188V140.812ZM941.338 102H993.963V116.188H976.213V178.875H993.963V193H941.338V178.875H958.65V116.188H941.338V102ZM1070.81 159H1057.5V193H1039.94V102H1070.44C1075.48 102 1080.04 102.604 1084.12 103.812C1088.21 104.979 1091.71 106.708 1094.62 109C1097.5 111.292 1099.71 114.146 1101.25 117.562C1102.83 120.979 1103.62 124.938 1103.62 129.438C1103.62 132.688 1103.23 135.625 1102.44 138.25C1101.69 140.833 1100.6 143.146 1099.19 145.188C1097.73 147.271 1095.98 149.083 1093.94 150.625C1091.94 152.167 1089.69 153.5 1087.19 154.625L1106.75 192.188V193H1087.94L1070.81 159ZM1057.5 144.75H1070.5C1073.21 144.75 1075.58 144.375 1077.62 143.625C1079.71 142.833 1081.4 141.708 1082.69 140.25C1083.77 139.083 1084.58 137.688 1085.12 136.062C1085.71 134.438 1086 132.625 1086 130.625C1086 128.208 1085.62 126.083 1084.88 124.25C1084.17 122.375 1083.08 120.833 1081.62 119.625C1080.33 118.542 1078.75 117.708 1076.88 117.125C1075 116.542 1072.85 116.25 1070.44 116.25H1057.5V144.75ZM1198.41 153.125H1161.04V178.812H1204.72V193H1143.41V102H1204.54V116.312H1161.04V139.25H1198.41V153.125ZM1289.64 174H1262.32L1256.95 193H1238.45L1268.26 102H1284.2L1313.45 193H1294.95L1289.64 174ZM1266.64 159.062H1285.51L1276.2 125.562L1266.64 159.062ZM1407.99 102L1408.05 162.312C1408.05 167.396 1407.34 171.917 1405.93 175.875C1404.55 179.833 1402.55 183.167 1399.93 185.875C1397.26 188.625 1394.01 190.708 1390.18 192.125C1386.38 193.542 1382.05 194.25 1377.18 194.25C1372.59 194.25 1368.45 193.542 1364.74 192.125C1361.07 190.708 1357.93 188.646 1355.3 185.938C1352.68 183.229 1350.63 179.896 1349.18 175.938C1347.76 171.938 1347.05 167.396 1347.05 162.312L1347.11 102H1364.68L1364.74 162.312C1364.78 165.354 1365.07 168.021 1365.61 170.312C1366.2 172.604 1367.05 174.5 1368.18 176C1369.22 177.375 1370.49 178.417 1371.99 179.125C1373.49 179.792 1375.22 180.125 1377.18 180.125C1379.3 180.125 1381.18 179.771 1382.8 179.062C1384.47 178.312 1385.84 177.208 1386.93 175.75C1388.09 174.25 1388.97 172.375 1389.55 170.125C1390.13 167.875 1390.45 165.271 1390.49 162.312L1390.55 102H1407.99Z" fill="#1E1E1E"/>
</svg>
