<svg width="951" height="457" viewBox="0 0 951 457" fill="none" xmlns="http://www.w3.org/2000/svg">
<rect x="2" y="2" width="947" height="453" rx="6" stroke="#2D2C38" stroke-width="4"/>
<path d="M120.642 264V118.545H150.898V173.233H151.821C153.147 170.297 155.064 167.314 157.574 164.284C160.131 161.206 163.445 158.65 167.517 156.614C171.636 154.53 176.75 153.489 182.858 153.489C190.813 153.489 198.152 155.572 204.875 159.739C211.598 163.858 216.973 170.084 220.997 178.418C225.022 186.704 227.034 197.097 227.034 209.597C227.034 221.765 225.069 232.04 221.139 240.42C217.257 248.754 211.954 255.075 205.23 259.384C198.554 263.645 191.073 265.776 182.787 265.776C176.916 265.776 171.92 264.805 167.801 262.864C163.729 260.922 160.391 258.484 157.787 255.548C155.183 252.565 153.194 249.559 151.821 246.528H150.472V264H120.642ZM150.259 209.455C150.259 215.941 151.158 221.599 152.957 226.429C154.757 231.259 157.361 235.023 160.77 237.722C164.179 240.373 168.322 241.699 173.199 241.699C178.123 241.699 182.29 240.349 185.699 237.651C189.108 234.904 191.688 231.116 193.44 226.287C195.24 221.41 196.139 215.799 196.139 209.455C196.139 203.157 195.263 197.617 193.511 192.835C191.759 188.053 189.179 184.312 185.77 181.614C182.361 178.915 178.17 177.565 173.199 177.565C168.275 177.565 164.108 178.867 160.699 181.472C157.337 184.076 154.757 187.769 152.957 192.551C151.158 197.333 150.259 202.968 150.259 209.455ZM261.222 264V154.909H291.478V264H261.222ZM276.421 140.847C271.923 140.847 268.064 139.355 264.844 136.372C261.672 133.342 260.086 129.72 260.086 125.506C260.086 121.339 261.672 117.764 264.844 114.781C268.064 111.751 271.923 110.236 276.421 110.236C280.919 110.236 284.754 111.751 287.927 114.781C291.147 117.764 292.756 121.339 292.756 125.506C292.756 129.72 291.147 133.342 287.927 136.372C284.754 139.355 280.919 140.847 276.421 140.847ZM379.004 266.131C367.972 266.131 358.431 263.787 350.382 259.099C342.38 254.365 336.201 247.783 331.845 239.355C327.489 230.88 325.311 221.055 325.311 209.881C325.311 198.612 327.489 188.763 331.845 180.335C336.201 171.86 342.38 165.278 350.382 160.591C358.431 155.856 367.972 153.489 379.004 153.489C390.036 153.489 399.554 155.856 407.555 160.591C415.605 165.278 421.807 171.86 426.163 180.335C430.519 188.763 432.697 198.612 432.697 209.881C432.697 221.055 430.519 230.88 426.163 239.355C421.807 247.783 415.605 254.365 407.555 259.099C399.554 263.787 390.036 266.131 379.004 266.131ZM379.146 242.693C384.165 242.693 388.356 241.273 391.717 238.432C395.079 235.544 397.612 231.614 399.317 226.642C401.069 221.67 401.945 216.012 401.945 209.668C401.945 203.323 401.069 197.665 399.317 192.693C397.612 187.722 395.079 183.792 391.717 180.903C388.356 178.015 384.165 176.571 379.146 176.571C374.08 176.571 369.819 178.015 366.362 180.903C362.953 183.792 360.373 187.722 358.621 192.693C356.916 197.665 356.064 203.323 356.064 209.668C356.064 216.012 356.916 221.67 358.621 226.642C360.373 231.614 362.953 235.544 366.362 238.432C369.819 241.273 374.08 242.693 379.146 242.693ZM466.371 264V154.909H495.206V174.156H496.484C498.757 167.764 502.545 162.722 507.848 159.028C513.151 155.335 519.496 153.489 526.882 153.489C534.363 153.489 540.732 155.359 545.987 159.099C551.243 162.793 554.747 167.812 556.499 174.156H557.635C559.86 167.906 563.885 162.911 569.709 159.17C575.58 155.383 582.517 153.489 590.518 153.489C600.698 153.489 608.961 156.732 615.305 163.219C621.697 169.658 624.893 178.796 624.893 190.634V264H594.709V196.599C594.709 190.539 593.099 185.993 589.879 182.963C586.66 179.933 582.635 178.418 577.805 178.418C572.313 178.418 568.028 180.17 564.95 183.673C561.873 187.13 560.334 191.699 560.334 197.381V264H531.001V195.96C531.001 190.61 529.463 186.348 526.385 183.176C523.355 180.004 519.354 178.418 514.382 178.418C511.02 178.418 507.99 179.27 505.291 180.974C502.64 182.632 500.533 184.975 498.97 188.006C497.408 190.989 496.626 194.492 496.626 198.517V264H466.371ZM712.509 266.131C701.287 266.131 691.628 263.858 683.531 259.312C675.482 254.72 669.279 248.233 664.923 239.852C660.567 231.424 658.389 221.457 658.389 209.952C658.389 198.73 660.567 188.882 664.923 180.406C669.279 171.931 675.411 165.326 683.318 160.591C691.273 155.856 700.6 153.489 711.301 153.489C718.498 153.489 725.198 154.649 731.401 156.969C737.651 159.241 743.096 162.674 747.736 167.267C752.423 171.86 756.069 177.636 758.673 184.597C761.277 191.509 762.58 199.606 762.58 208.886V217.196H670.463V198.446H734.099C734.099 194.09 733.152 190.231 731.259 186.869C729.365 183.508 726.737 180.88 723.375 178.986C720.061 177.045 716.202 176.074 711.798 176.074C707.205 176.074 703.134 177.139 699.582 179.27C696.079 181.353 693.332 184.17 691.344 187.722C689.355 191.225 688.337 195.132 688.29 199.44V217.267C688.29 222.665 689.284 227.329 691.273 231.259C693.309 235.188 696.173 238.219 699.866 240.349C703.56 242.48 707.939 243.545 713.006 243.545C716.367 243.545 719.445 243.072 722.239 242.125C725.032 241.178 727.423 239.758 729.412 237.864C731.401 235.97 732.916 233.65 733.957 230.903L761.94 232.75C760.52 239.473 757.608 245.345 753.205 250.364C748.848 255.335 743.214 259.218 736.301 262.011C729.436 264.758 721.505 266.131 712.509 266.131ZM814.009 265.847C809.321 265.847 805.296 264.189 801.935 260.875C798.62 257.513 796.963 253.489 796.963 248.801C796.963 244.161 798.62 240.184 801.935 236.869C805.296 233.555 809.321 231.898 814.009 231.898C818.554 231.898 822.531 233.555 825.94 236.869C829.349 240.184 831.054 244.161 831.054 248.801C831.054 251.926 830.249 254.791 828.639 257.395C827.077 259.952 825.017 262.011 822.46 263.574C819.903 265.089 817.086 265.847 814.009 265.847Z" fill="#2D2C38"/>
<path d="M122.523 351V321.909H132.693C134.72 321.909 136.391 322.259 137.707 322.96C139.024 323.652 140.004 324.584 140.648 325.759C141.292 326.923 141.614 328.216 141.614 329.636C141.614 330.886 141.391 331.919 140.946 332.733C140.51 333.547 139.933 334.191 139.213 334.665C138.503 335.138 137.731 335.489 136.898 335.716V336C137.788 336.057 138.683 336.369 139.582 336.938C140.482 337.506 141.235 338.32 141.841 339.381C142.447 340.441 142.75 341.739 142.75 343.273C142.75 344.731 142.419 346.043 141.756 347.207C141.093 348.372 140.046 349.295 138.616 349.977C137.187 350.659 135.326 351 133.034 351H122.523ZM126.045 347.875H133.034C135.335 347.875 136.969 347.43 137.935 346.54C138.91 345.64 139.398 344.551 139.398 343.273C139.398 342.288 139.147 341.379 138.645 340.545C138.143 339.703 137.428 339.03 136.5 338.528C135.572 338.017 134.473 337.761 133.205 337.761H126.045V347.875ZM126.045 334.693H132.58C133.64 334.693 134.597 334.485 135.449 334.068C136.311 333.652 136.992 333.064 137.494 332.307C138.006 331.549 138.261 330.659 138.261 329.636C138.261 328.358 137.816 327.274 136.926 326.384C136.036 325.484 134.625 325.034 132.693 325.034H126.045V334.693ZM181.084 336.455C181.084 339.523 180.53 342.174 179.422 344.409C178.314 346.644 176.794 348.367 174.862 349.58C172.93 350.792 170.724 351.398 168.243 351.398C165.762 351.398 163.555 350.792 161.624 349.58C159.692 348.367 158.172 346.644 157.064 344.409C155.956 342.174 155.402 339.523 155.402 336.455C155.402 333.386 155.956 330.735 157.064 328.5C158.172 326.265 159.692 324.542 161.624 323.33C163.555 322.117 165.762 321.511 168.243 321.511C170.724 321.511 172.93 322.117 174.862 323.33C176.794 324.542 178.314 326.265 179.422 328.5C180.53 330.735 181.084 333.386 181.084 336.455ZM177.675 336.455C177.675 333.936 177.253 331.81 176.411 330.077C175.577 328.344 174.446 327.032 173.016 326.142C171.595 325.252 170.004 324.807 168.243 324.807C166.482 324.807 164.886 325.252 163.456 326.142C162.036 327.032 160.904 328.344 160.061 330.077C159.228 331.81 158.811 333.936 158.811 336.455C158.811 338.973 159.228 341.099 160.061 342.832C160.904 344.565 162.036 345.877 163.456 346.767C164.886 347.657 166.482 348.102 168.243 348.102C170.004 348.102 171.595 347.657 173.016 346.767C174.446 345.877 175.577 344.565 176.411 342.832C177.253 341.099 177.675 338.973 177.675 336.455ZM219.553 336.455C219.553 339.523 218.999 342.174 217.891 344.409C216.783 346.644 215.263 348.367 213.331 349.58C211.399 350.792 209.193 351.398 206.712 351.398C204.231 351.398 202.024 350.792 200.092 349.58C198.161 348.367 196.641 346.644 195.533 344.409C194.425 342.174 193.871 339.523 193.871 336.455C193.871 333.386 194.425 330.735 195.533 328.5C196.641 326.265 198.161 324.542 200.092 323.33C202.024 322.117 204.231 321.511 206.712 321.511C209.193 321.511 211.399 322.117 213.331 323.33C215.263 324.542 216.783 326.265 217.891 328.5C218.999 330.735 219.553 333.386 219.553 336.455ZM216.143 336.455C216.143 333.936 215.722 331.81 214.879 330.077C214.046 328.344 212.914 327.032 211.484 326.142C210.064 325.252 208.473 324.807 206.712 324.807C204.95 324.807 203.355 325.252 201.925 326.142C200.504 327.032 199.373 328.344 198.53 330.077C197.696 331.81 197.28 333.936 197.28 336.455C197.28 338.973 197.696 341.099 198.53 342.832C199.373 344.565 200.504 345.877 201.925 346.767C203.355 347.657 204.95 348.102 206.712 348.102C208.473 348.102 210.064 347.657 211.484 346.767C212.914 345.877 214.046 344.565 214.879 342.832C215.722 341.099 216.143 338.973 216.143 336.455ZM233.476 351V321.909H236.999V336.341H237.339L250.408 321.909H255.01L242.794 335.034L255.01 351H250.749L240.635 337.477L236.999 341.568V351H233.476ZM271.092 321.909V351H267.57V321.909H271.092ZM302.065 329.182C301.894 327.742 301.203 326.625 299.991 325.83C298.779 325.034 297.292 324.636 295.531 324.636C294.243 324.636 293.116 324.845 292.15 325.261C291.193 325.678 290.445 326.251 289.906 326.98C289.375 327.709 289.11 328.538 289.11 329.466C289.11 330.242 289.295 330.91 289.664 331.469C290.043 332.018 290.526 332.477 291.113 332.847C291.7 333.206 292.316 333.505 292.96 333.741C293.603 333.969 294.195 334.153 294.735 334.295L297.69 335.091C298.447 335.29 299.29 335.564 300.218 335.915C301.156 336.265 302.05 336.743 302.903 337.349C303.764 337.946 304.475 338.713 305.033 339.651C305.592 340.588 305.871 341.739 305.871 343.102C305.871 344.674 305.46 346.095 304.636 347.364C303.821 348.633 302.628 349.641 301.056 350.389C299.494 351.137 297.595 351.511 295.36 351.511C293.277 351.511 291.473 351.175 289.948 350.503C288.433 349.83 287.24 348.893 286.369 347.69C285.507 346.488 285.019 345.091 284.906 343.5H288.542C288.637 344.598 289.006 345.508 289.65 346.227C290.303 346.937 291.127 347.468 292.121 347.818C293.125 348.159 294.205 348.33 295.36 348.33C296.705 348.33 297.912 348.112 298.982 347.676C300.052 347.231 300.9 346.616 301.525 345.83C302.15 345.034 302.462 344.106 302.462 343.045C302.462 342.08 302.192 341.294 301.653 340.688C301.113 340.081 300.403 339.589 299.522 339.21C298.641 338.831 297.69 338.5 296.667 338.216L293.087 337.193C290.815 336.54 289.015 335.607 287.69 334.395C286.364 333.183 285.701 331.597 285.701 329.636C285.701 328.008 286.141 326.587 287.022 325.375C287.912 324.153 289.105 323.206 290.602 322.534C292.107 321.852 293.788 321.511 295.644 321.511C297.519 321.511 299.186 321.848 300.644 322.52C302.103 323.183 303.258 324.092 304.11 325.247C304.972 326.402 305.426 327.714 305.474 329.182H302.065ZM319.663 351V321.909H323.186V334.864H338.697V321.909H342.22V351H338.697V337.989H323.186V351H319.663ZM392.432 329.182C392.261 327.742 391.57 326.625 390.358 325.83C389.146 325.034 387.659 324.636 385.898 324.636C384.61 324.636 383.483 324.845 382.517 325.261C381.561 325.678 380.813 326.251 380.273 326.98C379.742 327.709 379.477 328.538 379.477 329.466C379.477 330.242 379.662 330.91 380.031 331.469C380.41 332.018 380.893 332.477 381.48 332.847C382.067 333.206 382.683 333.505 383.327 333.741C383.971 333.969 384.562 334.153 385.102 334.295L388.057 335.091C388.814 335.29 389.657 335.564 390.585 335.915C391.523 336.265 392.418 336.743 393.27 337.349C394.132 337.946 394.842 338.713 395.401 339.651C395.959 340.588 396.239 341.739 396.239 343.102C396.239 344.674 395.827 346.095 395.003 347.364C394.188 348.633 392.995 349.641 391.423 350.389C389.861 351.137 387.962 351.511 385.727 351.511C383.644 351.511 381.84 351.175 380.315 350.503C378.8 349.83 377.607 348.893 376.736 347.69C375.874 346.488 375.386 345.091 375.273 343.5H378.909C379.004 344.598 379.373 345.508 380.017 346.227C380.67 346.937 381.494 347.468 382.489 347.818C383.492 348.159 384.572 348.33 385.727 348.33C387.072 348.33 388.279 348.112 389.349 347.676C390.42 347.231 391.267 346.616 391.892 345.83C392.517 345.034 392.83 344.106 392.83 343.045C392.83 342.08 392.56 341.294 392.02 340.688C391.48 340.081 390.77 339.589 389.889 339.21C389.009 338.831 388.057 338.5 387.034 338.216L383.455 337.193C381.182 336.54 379.383 335.607 378.057 334.395C376.731 333.183 376.068 331.597 376.068 329.636C376.068 328.008 376.509 326.587 377.389 325.375C378.279 324.153 379.473 323.206 380.969 322.534C382.474 321.852 384.155 321.511 386.011 321.511C387.886 321.511 389.553 321.848 391.011 322.52C392.47 323.183 393.625 324.092 394.477 325.247C395.339 326.402 395.794 327.714 395.841 329.182H392.432ZM434.576 336.455C434.576 339.523 434.022 342.174 432.914 344.409C431.806 346.644 430.286 348.367 428.354 349.58C426.423 350.792 424.216 351.398 421.735 351.398C419.254 351.398 417.048 350.792 415.116 349.58C413.184 348.367 411.664 346.644 410.556 344.409C409.448 342.174 408.894 339.523 408.894 336.455C408.894 333.386 409.448 330.735 410.556 328.5C411.664 326.265 413.184 324.542 415.116 323.33C417.048 322.117 419.254 321.511 421.735 321.511C424.216 321.511 426.423 322.117 428.354 323.33C430.286 324.542 431.806 326.265 432.914 328.5C434.022 330.735 434.576 333.386 434.576 336.455ZM431.167 336.455C431.167 333.936 430.746 331.81 429.903 330.077C429.069 328.344 427.938 327.032 426.508 326.142C425.087 325.252 423.496 324.807 421.735 324.807C419.974 324.807 418.378 325.252 416.948 326.142C415.528 327.032 414.396 328.344 413.553 330.077C412.72 331.81 412.303 333.936 412.303 336.455C412.303 338.973 412.72 341.099 413.553 342.832C414.396 344.565 415.528 345.877 416.948 346.767C418.378 347.657 419.974 348.102 421.735 348.102C423.496 348.102 425.087 347.657 426.508 346.767C427.938 345.877 429.069 344.565 429.903 342.832C430.746 341.099 431.167 338.973 431.167 336.455ZM471.908 331H468.386C468.177 329.987 467.813 329.097 467.292 328.33C466.781 327.562 466.156 326.919 465.417 326.398C464.688 325.867 463.878 325.47 462.988 325.205C462.098 324.939 461.17 324.807 460.204 324.807C458.442 324.807 456.847 325.252 455.417 326.142C453.996 327.032 452.865 328.344 452.022 330.077C451.189 331.81 450.772 333.936 450.772 336.455C450.772 338.973 451.189 341.099 452.022 342.832C452.865 344.565 453.996 345.877 455.417 346.767C456.847 347.657 458.442 348.102 460.204 348.102C461.17 348.102 462.098 347.97 462.988 347.705C463.878 347.439 464.688 347.046 465.417 346.526C466.156 345.995 466.781 345.347 467.292 344.58C467.813 343.803 468.177 342.913 468.386 341.909H471.908C471.643 343.396 471.16 344.726 470.46 345.901C469.759 347.075 468.888 348.074 467.846 348.898C466.804 349.712 465.635 350.332 464.337 350.759C463.049 351.185 461.672 351.398 460.204 351.398C457.723 351.398 455.516 350.792 453.585 349.58C451.653 348.367 450.133 346.644 449.025 344.409C447.917 342.174 447.363 339.523 447.363 336.455C447.363 333.386 447.917 330.735 449.025 328.5C450.133 326.265 451.653 324.542 453.585 323.33C455.516 322.117 457.723 321.511 460.204 321.511C461.672 321.511 463.049 321.724 464.337 322.151C465.635 322.577 466.804 323.202 467.846 324.026C468.888 324.84 469.759 325.834 470.46 327.009C471.16 328.173 471.643 329.504 471.908 331ZM489.124 321.909V351H485.601V321.909H489.124ZM505.38 351H501.687L512.369 321.909H516.005L526.687 351H522.994L514.3 326.511H514.073L505.38 351ZM506.744 339.636H521.63V342.761H506.744V339.636ZM539.218 351V321.909H542.741V347.875H556.263V351H539.218ZM612.036 321.909V351H608.627L592.775 328.159H592.491V351H588.968V321.909H592.377L608.286 344.807H608.57V321.909H612.036ZM627.085 351V321.909H644.642V325.034H630.608V334.864H643.733V337.989H630.608V347.875H644.869V351H627.085ZM657.401 325.034V321.909H679.219V325.034H670.071V351H666.548V325.034H657.401ZM697.94 351L689.985 321.909H693.565L699.644 345.602H699.928L706.121 321.909H710.099L716.292 345.602H716.576L722.656 321.909H726.235L718.281 351H714.644L708.224 327.818H707.996L701.576 351H697.94ZM761.803 336.455C761.803 339.523 761.249 342.174 760.141 344.409C759.033 346.644 757.513 348.367 755.581 349.58C753.649 350.792 751.443 351.398 748.962 351.398C746.481 351.398 744.274 350.792 742.342 349.58C740.411 348.367 738.891 346.644 737.783 344.409C736.675 342.174 736.121 339.523 736.121 336.455C736.121 333.386 736.675 330.735 737.783 328.5C738.891 326.265 740.411 324.542 742.342 323.33C744.274 322.117 746.481 321.511 748.962 321.511C751.443 321.511 753.649 322.117 755.581 323.33C757.513 324.542 759.033 326.265 760.141 328.5C761.249 330.735 761.803 333.386 761.803 336.455ZM758.393 336.455C758.393 333.936 757.972 331.81 757.129 330.077C756.296 328.344 755.164 327.032 753.734 326.142C752.314 325.252 750.723 324.807 748.962 324.807C747.2 324.807 745.605 325.252 744.175 326.142C742.754 327.032 741.623 328.344 740.78 330.077C739.946 331.81 739.53 333.936 739.53 336.455C739.53 338.973 739.946 341.099 740.78 342.832C741.623 344.565 742.754 345.877 744.175 346.767C745.605 347.657 747.2 348.102 748.962 348.102C750.723 348.102 752.314 347.657 753.734 346.767C755.164 345.877 756.296 344.565 757.129 342.832C757.972 341.099 758.393 338.973 758.393 336.455ZM775.726 351V321.909H785.555C787.828 321.909 789.694 322.297 791.152 323.074C792.61 323.841 793.69 324.897 794.391 326.241C795.091 327.586 795.442 329.116 795.442 330.83C795.442 332.544 795.091 334.063 794.391 335.389C793.69 336.715 792.615 337.757 791.166 338.514C789.717 339.262 787.866 339.636 785.612 339.636H777.658V336.455H785.499C787.052 336.455 788.302 336.227 789.249 335.773C790.205 335.318 790.896 334.674 791.322 333.841C791.758 332.998 791.976 331.994 791.976 330.83C791.976 329.665 791.758 328.647 791.322 327.776C790.887 326.904 790.191 326.232 789.234 325.759C788.278 325.276 787.014 325.034 785.442 325.034H779.249V351H775.726ZM789.419 337.932L796.578 351H792.487L785.442 337.932H789.419ZM809.312 351V321.909H812.835V336.341H813.175L826.244 321.909H830.846L818.63 335.034L830.846 351H826.585L816.471 337.477L812.835 341.568V351H809.312Z" fill="#2D2C38"/>
</svg>
