<svg width="230" height="60" viewBox="0 0 230 60" fill="none" xmlns="http://www.w3.org/2000/svg">
<rect x="0.5" y="0.5" width="229" height="59" stroke="#1E1E1E"/>
<path d="M21.5781 32.3789H18.6953V39H15.8828V21.9375H21.2969C22.1797 21.9453 22.9922 22.0586 23.7344 22.2773C24.4766 22.4961 25.1172 22.8164 25.6562 23.2383C26.1875 23.668 26.6016 24.2031 26.8984 24.8438C27.1953 25.4766 27.3438 26.2188 27.3438 27.0703C27.3438 27.6562 27.2656 28.1875 27.1094 28.6641C26.9609 29.1406 26.75 29.5703 26.4766 29.9531C26.2031 30.3359 25.875 30.6719 25.4922 30.9609C25.1094 31.25 24.6836 31.5 24.2148 31.7109L27.8594 38.8477V39H24.8477L21.5781 32.3789ZM18.6953 30.082H21.332C21.832 30.0742 22.2812 30 22.6797 29.8594C23.0859 29.7109 23.4297 29.5 23.7109 29.2266C23.9609 28.9922 24.1562 28.7031 24.2969 28.3594C24.4375 28.0156 24.5078 27.625 24.5078 27.1875C24.5078 26.6953 24.4297 26.2656 24.2734 25.8984C24.125 25.5234 23.9023 25.2109 23.6055 24.9609C23.332 24.7266 23 24.5508 22.6094 24.4336C22.2188 24.3086 21.7812 24.2422 21.2969 24.2344H18.6953V30.082ZM41.8281 31.6055C41.8281 32.293 41.7656 32.957 41.6406 33.5977C41.5234 34.2383 41.3516 34.8438 41.125 35.4141C40.8828 35.9844 40.582 36.5117 40.2227 36.9961C39.8633 37.4727 39.4492 37.8828 38.9805 38.2266C38.5273 38.5391 38.0234 38.7852 37.4688 38.9648C36.9219 39.1445 36.3203 39.2344 35.6641 39.2344C34.9844 39.2344 34.3594 39.1406 33.7891 38.9531C33.2266 38.7578 32.7227 38.4922 32.2773 38.1562C31.8242 37.8125 31.4258 37.3984 31.082 36.9141C30.7461 36.4297 30.4648 35.8984 30.2383 35.3203C30.0195 34.7656 29.8555 34.1758 29.7461 33.5508C29.6367 32.918 29.582 32.2695 29.582 31.6055V29.3555C29.582 28.6602 29.6406 27.9883 29.7578 27.3398C29.875 26.6914 30.0508 26.0781 30.2852 25.5C30.5117 24.9453 30.7891 24.4375 31.1172 23.9766C31.4531 23.5078 31.8477 23.1016 32.3008 22.7578C32.7383 22.4219 33.2344 22.1641 33.7891 21.9844C34.3516 21.7969 34.9688 21.7031 35.6406 21.7031C36.3203 21.7031 36.9453 21.7969 37.5156 21.9844C38.0859 22.1719 38.5977 22.4336 39.0508 22.7695C39.5039 23.1055 39.8984 23.5 40.2344 23.9531C40.5703 24.4062 40.8516 24.9023 41.0781 25.4414C41.3281 26.0195 41.5156 26.6406 41.6406 27.3047C41.7656 27.9609 41.8281 28.6445 41.8281 29.3555V31.6055ZM38.9922 29.332C38.9844 28.9023 38.957 28.4805 38.9102 28.0664C38.8711 27.6523 38.8008 27.2578 38.6992 26.8828C38.582 26.4531 38.4258 26.0625 38.2305 25.7109C38.043 25.3516 37.8125 25.0469 37.5391 24.7969C37.2969 24.5781 37.0195 24.4062 36.707 24.2812C36.3945 24.1562 36.0391 24.0938 35.6406 24.0938C35.2578 24.0938 34.9141 24.1562 34.6094 24.2812C34.3047 24.3984 34.0391 24.5625 33.8125 24.7734C33.5391 25.0312 33.3086 25.3398 33.1211 25.6992C32.9336 26.0508 32.7891 26.4453 32.6875 26.8828C32.5938 27.2578 32.5234 27.6562 32.4766 28.0781C32.4375 28.4922 32.418 28.9102 32.418 29.332V31.6055C32.418 32.0195 32.4375 32.4297 32.4766 32.8359C32.5156 33.2422 32.582 33.6328 32.6758 34.0078C32.7773 34.4297 32.9141 34.8242 33.0859 35.1914C33.2656 35.5508 33.4805 35.8555 33.7305 36.1055C33.9727 36.3398 34.25 36.5273 34.5625 36.668C34.8828 36.8008 35.25 36.8672 35.6641 36.8672C36.0625 36.8672 36.4219 36.8008 36.7422 36.668C37.0703 36.5352 37.3516 36.3555 37.5859 36.1289C37.8594 35.8711 38.0859 35.5664 38.2656 35.2148C38.4531 34.8555 38.6016 34.4609 38.7109 34.0312C38.8047 33.6562 38.8711 33.2656 38.9102 32.8594C38.957 32.4453 38.9844 32.0273 38.9922 31.6055V29.332ZM48.0156 21.9375L50.125 29.2383L52.457 21.9375H55.9609V39H53.3125V33.2109L53.4766 25.5938L50.8516 33.7383H49.3867L47.0078 25.875L47.1602 33.2109V39H44.5234V21.9375H48.0156ZM67.375 35.0742H62.0195L60.8594 39H57.9297L63.4844 21.9375H65.9805L71.4414 39H68.5234L67.375 35.0742ZM62.7344 32.6602H66.6836L64.7266 25.9102L62.7344 32.6602ZM84.5195 39H81.6953L76.1523 27.2578L76.1406 39H73.293V21.9375H76.1523L81.6602 33.6328L81.6836 21.9375H84.5195V39ZM97.9492 31.3477H90.8945V36.6797H99.1328V39H88.0703V21.9375H99.0742V24.2695H90.8945V29.0742H97.9492V31.3477ZM116.723 39V21.9375H122.184C123.012 21.9375 123.789 22.0312 124.516 22.2188C125.242 22.3984 125.871 22.6758 126.402 23.0508C126.934 23.4258 127.348 23.9062 127.645 24.4922C127.949 25.0703 128.102 25.7578 128.102 26.5547C128.094 27.0391 128.008 27.4922 127.844 27.9141C127.688 28.3281 127.461 28.6953 127.164 29.0156C126.953 29.25 126.715 29.457 126.449 29.6367C126.191 29.8086 125.891 29.9648 125.547 30.1055V30.1289C126.055 30.2617 126.488 30.457 126.848 30.7148C127.207 30.9648 127.508 31.25 127.75 31.5703C128 31.9141 128.188 32.2969 128.312 32.7188C128.445 33.1328 128.512 33.5703 128.512 34.0312C128.52 34.8438 128.375 35.5586 128.078 36.1758C127.781 36.793 127.371 37.3086 126.848 37.7227C126.324 38.1445 125.699 38.4648 124.973 38.6836C124.254 38.8945 123.473 39 122.629 39H116.723ZM119.559 31.2891V36.6797H122.652C123.098 36.6797 123.504 36.6172 123.871 36.4922C124.238 36.3672 124.551 36.1953 124.809 35.9766C125.09 35.75 125.305 35.4727 125.453 35.1445C125.609 34.8086 125.688 34.4375 125.688 34.0312C125.688 33.6016 125.625 33.2227 125.5 32.8945C125.375 32.5586 125.188 32.2734 124.938 32.0391C124.688 31.8047 124.383 31.625 124.023 31.5C123.664 31.3672 123.254 31.2969 122.793 31.2891H119.559ZM119.559 29.1445H122.242C122.703 29.1367 123.125 29.0742 123.508 28.957C123.898 28.8398 124.227 28.668 124.492 28.4414C124.734 28.2383 124.926 27.9922 125.066 27.7031C125.207 27.4141 125.277 27.082 125.277 26.707C125.277 26.3086 125.211 25.9648 125.078 25.6758C124.953 25.3789 124.773 25.1367 124.539 24.9492C124.273 24.7148 123.941 24.5469 123.543 24.4453C123.145 24.3359 122.703 24.2773 122.219 24.2695H119.559V29.1445ZM142.727 31.6055C142.727 32.293 142.664 32.957 142.539 33.5977C142.422 34.2383 142.25 34.8438 142.023 35.4141C141.781 35.9844 141.48 36.5117 141.121 36.9961C140.762 37.4727 140.348 37.8828 139.879 38.2266C139.426 38.5391 138.922 38.7852 138.367 38.9648C137.82 39.1445 137.219 39.2344 136.562 39.2344C135.883 39.2344 135.258 39.1406 134.688 38.9531C134.125 38.7578 133.621 38.4922 133.176 38.1562C132.723 37.8125 132.324 37.3984 131.98 36.9141C131.645 36.4297 131.363 35.8984 131.137 35.3203C130.918 34.7656 130.754 34.1758 130.645 33.5508C130.535 32.918 130.48 32.2695 130.48 31.6055V29.3555C130.48 28.6602 130.539 27.9883 130.656 27.3398C130.773 26.6914 130.949 26.0781 131.184 25.5C131.41 24.9453 131.688 24.4375 132.016 23.9766C132.352 23.5078 132.746 23.1016 133.199 22.7578C133.637 22.4219 134.133 22.1641 134.688 21.9844C135.25 21.7969 135.867 21.7031 136.539 21.7031C137.219 21.7031 137.844 21.7969 138.414 21.9844C138.984 22.1719 139.496 22.4336 139.949 22.7695C140.402 23.1055 140.797 23.5 141.133 23.9531C141.469 24.4062 141.75 24.9023 141.977 25.4414C142.227 26.0195 142.414 26.6406 142.539 27.3047C142.664 27.9609 142.727 28.6445 142.727 29.3555V31.6055ZM139.891 29.332C139.883 28.9023 139.855 28.4805 139.809 28.0664C139.77 27.6523 139.699 27.2578 139.598 26.8828C139.48 26.4531 139.324 26.0625 139.129 25.7109C138.941 25.3516 138.711 25.0469 138.438 24.7969C138.195 24.5781 137.918 24.4062 137.605 24.2812C137.293 24.1562 136.938 24.0938 136.539 24.0938C136.156 24.0938 135.812 24.1562 135.508 24.2812C135.203 24.3984 134.938 24.5625 134.711 24.7734C134.438 25.0312 134.207 25.3398 134.02 25.6992C133.832 26.0508 133.688 26.4453 133.586 26.8828C133.492 27.2578 133.422 27.6562 133.375 28.0781C133.336 28.4922 133.316 28.9102 133.316 29.332V31.6055C133.316 32.0195 133.336 32.4297 133.375 32.8359C133.414 33.2422 133.48 33.6328 133.574 34.0078C133.676 34.4297 133.812 34.8242 133.984 35.1914C134.164 35.5508 134.379 35.8555 134.629 36.1055C134.871 36.3398 135.148 36.5273 135.461 36.668C135.781 36.8008 136.148 36.8672 136.562 36.8672C136.961 36.8672 137.32 36.8008 137.641 36.668C137.969 36.5352 138.25 36.3555 138.484 36.1289C138.758 35.8711 138.984 35.5664 139.164 35.2148C139.352 34.8555 139.5 34.4609 139.609 34.0312C139.703 33.6562 139.77 33.2656 139.809 32.8594C139.855 32.4453 139.883 32.0273 139.891 31.6055V29.332ZM145.996 21.9375H156.051V24.2695H152.406V36.6797H156.051V39H145.996V36.6797H149.559V24.2695H145.996V21.9375ZM165.719 32.3789H162.836V39H160.023V21.9375H165.438C166.32 21.9453 167.133 22.0586 167.875 22.2773C168.617 22.4961 169.258 22.8164 169.797 23.2383C170.328 23.668 170.742 24.2031 171.039 24.8438C171.336 25.4766 171.484 26.2188 171.484 27.0703C171.484 27.6562 171.406 28.1875 171.25 28.6641C171.102 29.1406 170.891 29.5703 170.617 29.9531C170.344 30.3359 170.016 30.6719 169.633 30.9609C169.25 31.25 168.824 31.5 168.355 31.7109L172 38.8477V39H168.988L165.719 32.3789ZM162.836 30.082H165.473C165.973 30.0742 166.422 30 166.82 29.8594C167.227 29.7109 167.57 29.5 167.852 29.2266C168.102 28.9922 168.297 28.7031 168.438 28.3594C168.578 28.0156 168.648 27.625 168.648 27.1875C168.648 26.6953 168.57 26.2656 168.414 25.8984C168.266 25.5234 168.043 25.2109 167.746 24.9609C167.473 24.7266 167.141 24.5508 166.75 24.4336C166.359 24.3086 165.922 24.2422 165.438 24.2344H162.836V30.082ZM184.434 31.3477H177.379V36.6797H185.617V39H174.555V21.9375H185.559V24.2695H177.379V29.0742H184.434V31.3477ZM197.102 35.0742H191.746L190.586 39H187.656L193.211 21.9375H195.707L201.168 39H198.25L197.102 35.0742ZM192.461 32.6602H196.41L194.453 25.9102L192.461 32.6602ZM214.328 21.9375L214.34 33.3516C214.34 34.2344 214.203 35.0391 213.93 35.7656C213.664 36.4844 213.285 37.1016 212.793 37.6172C212.293 38.1328 211.691 38.5312 210.988 38.8125C210.293 39.0938 209.512 39.2344 208.645 39.2344C207.793 39.2344 207.023 39.0977 206.336 38.8242C205.648 38.543 205.062 38.1445 204.578 37.6289C204.086 37.1133 203.703 36.4922 203.43 35.7656C203.164 35.0391 203.027 34.2344 203.02 33.3516L203.043 21.9375H205.82L205.844 33.3516C205.852 33.8906 205.918 34.3867 206.043 34.8398C206.168 35.2852 206.352 35.6641 206.594 35.9766C206.828 36.2734 207.113 36.5078 207.449 36.6797C207.793 36.8438 208.191 36.9258 208.645 36.9258C209.105 36.9258 209.512 36.8438 209.863 36.6797C210.223 36.5078 210.523 36.2656 210.766 35.9531C211.008 35.6328 211.191 35.2539 211.316 34.8164C211.441 34.3711 211.512 33.8828 211.527 33.3516L211.551 21.9375H214.328Z" fill="#1E1E1E"/>
</svg>
